<svg version="1.2" xmlns="http://www.w3.org/2000/svg" viewBox="0 0 190 84" width="190" height="84">
	<title>EFCB-MasterLogo-CMYK-ai</title>
	<style>
		.s0 { fill: #58275e } 
	</style>
	<g id="Layer 1">
		<g id="&lt;Group&gt;">
			<g id="&lt;Group&gt;">
				<path id="&lt;Compound Path&gt;" class="s0" d="m75.9 7.7q0.1 0.4 0.1 0.6 0.1 0.3 0 0.3 0 0 0 0-0.1 0-0.1 0-0.1-0.1-0.1-0.2-0.1-0.2-0.2-0.3 0-0.1-0.1-0.1-0.1-0.1-0.4-0.1l-1.3 0.1 0.2 2.3q0 0.4 0.2 0.6 0.2 0.1 0.6 0.1h0.8q0.2 0 0.4-0.1 0.2-0.1 0.3-0.2 0.1-0.1 0.2-0.2 0.2-0.2 0.3-0.5 0-0.1 0.1-0.3 0.1-0.1 0.1-0.1 0.1-0.1 0.2-0.1 0.1 0 0.1 0-0.1 0.6-0.2 1-0.1 0.4-0.2 0.8h-0.9q-0.3 0-0.7 0-0.4 0-0.8 0.1-0.4 0-0.8 0-0.3 0-0.6 0-0.3 0-0.6 0-0.3 0.1-0.5 0.1-0.2 0-0.3 0-0.1 0-0.1 0 0 0 0-0.1 0 0 0-0.1 0.1 0 0.3-0.1 0.1 0 0.2-0.1 0.1 0 0.1-0.1 0.1-0.1 0.1-0.4l-0.3-5.4q0-0.2-0.1-0.3 0-0.1-0.1-0.2-0.2-0.1-0.3-0.1-0.1 0-0.2 0 0-0.1-0.1-0.1 0-0.1 0-0.1 0.1 0 0.2 0 0.1 0 0.3 0 0.2 0 0.4 0 0.3 0 0.6 0 0.3-0.1 0.7-0.1 0.4 0 0.8 0 0.4-0.1 0.8-0.1 0.3 0 0.7 0l0.6-0.1q0.1 0.4 0.2 0.8 0 0.3 0.2 0.8-0.1 0-0.2 0 0 0-0.1 0 0-0.1-0.1-0.2-0.1-0.1-0.1-0.3-0.2-0.3-0.4-0.5-0.3-0.2-0.8-0.2l-0.5 0.1q-0.4 0-0.6 0.2-0.2 0.1-0.2 0.5l0.1 2.3h1.3q0.2 0 0.3-0.1 0.2-0.1 0.2-0.2 0.1-0.1 0.1-0.2 0-0.1 0.1-0.2 0-0.1 0.1-0.1 0 0 0 0 0.1 0 0.1 0.3-0.1 0.2-0.1 0.6z"/>
				<path id="&lt;Compound Path&gt;" fill-rule="evenodd" class="s0" d="m78.1 12.5q0-0.3 0.2-0.5 0.2-0.2 0.6-0.3 0.3 0 0.5 0.2 0.2 0.2 0.2 0.5 0 0.3-0.1 0.5-0.2 0.2-0.4 0.3 0.2 0.1 0.5 0.2 0.4 0 0.8 0 0.4 0 0.7-0.1 0.3 0 0.5-0.1 0.2-0.2 0.2-0.3 0.1-0.1 0.1-0.2 0-0.3-0.4-0.5-0.5-0.2-1.3-0.4-0.5-0.2-0.9-0.3-0.4-0.1-0.7-0.3-0.3-0.1-0.4-0.3-0.2-0.1-0.2-0.4 0-0.3 0.2-0.6 0.3-0.3 0.6-0.4-0.4-0.3-0.7-0.7-0.3-0.4-0.3-0.8 0-0.5 0.2-0.8 0.1-0.4 0.4-0.7 0.3-0.2 0.7-0.4 0.5-0.2 1-0.2 0.6 0 1.1 0.2 0.3-0.3 0.6-0.6 0.4-0.2 0.8-0.2 0.4 0 0.5 0.2 0.2 0.1 0.2 0.4 0.1 0.3-0.1 0.5-0.2 0.2-0.5 0.2-0.2 0-0.4-0.2-0.2-0.2-0.2-0.4 0-0.1 0-0.1 0-0.1 0-0.1-0.1 0-0.3 0.1-0.2 0.1-0.4 0.3 0.5 0.2 0.8 0.6 0.3 0.4 0.3 0.9 0 0.5-0.1 0.8-0.2 0.4-0.5 0.7-0.3 0.2-0.7 0.4-0.4 0.2-1 0.2-0.6 0-1.1-0.2-0.1 0.1-0.2 0.1-0.1 0.1-0.1 0.2 0 0.1 0.5 0.2 0.6 0.1 1.6 0.3 0.5 0 0.9 0.2 0.4 0.1 0.7 0.3 0.2 0.2 0.3 0.4 0.2 0.2 0.2 0.5 0 0.3-0.2 0.6-0.1 0.4-0.5 0.6-0.3 0.3-0.8 0.5-0.5 0.2-1.1 0.2-0.4 0-0.8-0.1-0.4 0-0.7-0.2-0.3-0.1-0.5-0.3-0.2-0.3-0.3-0.6zm1.3-4.6q0.1 0.7 0.4 1.1 0.3 0.5 0.7 0.5 0.3 0 0.5-0.5 0.1-0.4 0-1.2-0.2-0.7-0.5-1.2-0.3-0.4-0.7-0.4-0.3 0-0.4 0.5-0.2 0.4 0 1.2z"/>
				<path id="&lt;Compound Path&gt;" fill-rule="evenodd" class="s0" d="m83.8 12.3q0-0.3 0.2-0.5 0.2-0.2 0.5-0.2 0.3 0 0.5 0.2 0.3 0.2 0.3 0.5 0 0.2-0.2 0.4-0.1 0.2-0.4 0.3 0.2 0.1 0.6 0.2 0.3 0.1 0.8 0.1 0.4 0 0.6-0.1 0.3-0.1 0.5-0.2 0.2-0.1 0.3-0.2 0.1-0.2 0.1-0.3 0-0.3-0.5-0.5-0.4-0.2-1.3-0.4-0.5-0.1-0.9-0.3-0.4-0.1-0.6-0.2-0.3-0.2-0.5-0.4-0.1-0.1-0.1-0.4 0-0.3 0.2-0.6 0.2-0.2 0.6-0.4-0.5-0.3-0.7-0.7-0.2-0.4-0.3-0.8 0-0.5 0.2-0.8 0.1-0.4 0.4-0.7 0.3-0.2 0.8-0.4 0.4-0.1 0.9-0.1 0.6-0.1 1.2 0.1 0.2-0.3 0.6-0.5 0.4-0.2 0.8-0.2 0.3-0.1 0.5 0.1 0.2 0.2 0.2 0.5 0 0.3-0.2 0.4-0.2 0.2-0.4 0.2-0.3 0-0.5-0.1-0.2-0.2-0.2-0.5 0 0 0-0.1 0 0 0 0-0.1 0-0.3 0.1-0.2 0.1-0.3 0.2 0.5 0.3 0.7 0.7 0.3 0.4 0.3 0.9 0 0.4-0.1 0.8-0.2 0.3-0.5 0.6-0.3 0.3-0.7 0.4-0.5 0.2-1 0.2-0.6 0-1.1-0.2-0.2 0.1-0.2 0.1-0.1 0.1-0.1 0.2 0 0.1 0.5 0.2 0.5 0.2 1.5 0.3 0.6 0.1 1 0.2 0.4 0.2 0.7 0.3 0.2 0.2 0.3 0.5 0.1 0.2 0.1 0.5 0 0.3-0.1 0.6-0.2 0.3-0.5 0.6-0.4 0.3-0.9 0.4-0.5 0.2-1.1 0.2-0.4 0-0.8 0-0.4-0.1-0.7-0.3-0.3-0.1-0.5-0.3-0.2-0.3-0.2-0.6zm1.3-4.6q0.1 0.7 0.4 1.2 0.3 0.4 0.7 0.4 0.3 0 0.5-0.4 0.1-0.5 0-1.2-0.2-0.8-0.5-1.2-0.3-0.5-0.6-0.5-0.3 0.1-0.5 0.5-0.1 0.5 0 1.2z"/>
				<path id="&lt;Compound Path&gt;" class="s0" d="m96.4 7.4q0 0.3 0.1 0.6 0 0.2 0 0.3-0.1 0-0.1 0-0.1 0-0.1-0.1-0.1-0.1-0.1-0.2 0-0.1-0.1-0.3-0.1-0.1-0.2-0.1-0.1-0.1-0.3-0.1h-1.3v2.5q0 0.2 0.1 0.3 0 0.1 0.1 0.2 0.2 0.1 0.3 0.1 0.1 0 0.2 0.1 0 0 0 0.1 0 0.1 0 0.1 0 0-0.1 0-0.2 0-0.4 0-0.2 0-0.4-0.1-0.3 0-0.6 0-0.3 0-0.6 0-0.3 0.1-0.5 0.1-0.2 0-0.4 0-0.1 0-0.1 0 0 0 0-0.1 0-0.1 0-0.1 0.1-0.1 0.2-0.1 0.2 0 0.3-0.1 0.1-0.1 0.2-0.2 0-0.1 0-0.3v-5.4q0-0.2 0-0.3-0.1-0.1-0.2-0.2-0.1-0.1-0.3-0.1-0.1 0-0.2-0.1 0 0 0-0.1 0-0.1 0-0.1 0 0 0.1 0 0.1 0 0.3 0 0.2 0 0.5 0.1 0.2 0 0.5 0 0.4 0 0.7 0 0.4 0 0.8-0.1 0.4 0 0.8 0 0.4 0 0.7 0h0.8q0 0.4 0.1 0.8 0 0.4 0.1 0.9 0 0-0.1 0-0.1 0-0.1 0-0.1-0.1-0.1-0.2-0.1-0.2-0.1-0.3-0.2-0.4-0.4-0.6-0.3-0.2-0.8-0.2h-0.6q-0.4 0-0.6 0.1-0.2 0.2-0.2 0.6v2.4h1.3q0.2 0 0.3-0.1 0.1 0 0.2-0.1 0.1-0.2 0.1-0.3 0-0.1 0.1-0.2 0 0 0.1-0.1 0 0 0.1 0.1 0 0 0 0.2-0.1 0.3-0.1 0.7z"/>
				<path id="&lt;Compound Path&gt;" class="s0" d="m101.5 5.7q0.2 0 0.3 0.1 0.2 0 0.3 0.2 0.2 0.1 0.3 0.2 0 0.2 0 0.4 0 0.4-0.2 0.6-0.2 0.2-0.5 0.2-0.3 0-0.6-0.2-0.2-0.2-0.2-0.5 0-0.2 0.1-0.4 0.1-0.2 0.3-0.3-0.2 0.1-0.5 0.2-0.2 0.1-0.3 0.3-0.2 0.2-0.4 0.4-0.1 0.2-0.2 0.4l-0.1 2.7q0 0.3 0.1 0.4 0 0.1 0.1 0.2 0.2 0.1 0.3 0.1 0.1 0 0.2 0 0 0.1 0 0.1 0 0.1 0 0.1 0 0-0.1 0-0.1 0-0.3 0-0.2 0-0.5 0-0.3 0-0.6 0-0.3-0.1-0.5 0-0.3 0-0.5 0-0.2 0-0.4 0-0.1 0-0.1 0 0 0 0-0.1 0-0.1 0.1-0.1 0.1-0.1 0.2-0.1 0.1 0 0.2-0.1 0.1 0 0.2-0.1 0-0.1 0-0.4l0.1-2.6q0-0.2-0.1-0.4 0-0.1-0.1-0.1-0.1-0.1-0.2-0.1-0.1-0.1-0.2-0.1-0.1-0.1-0.1-0.1 0-0.1 0-0.1 0.3 0 0.6-0.1 0.3 0 0.6-0.1 0.3-0.1 0.5-0.2 0.2-0.2 0.4-0.4h0.2v1.1q0.1-0.2 0.3-0.4 0.1-0.2 0.4-0.3 0.2-0.2 0.4-0.3 0.2-0.1 0.5-0.1z"/>
				<path id="&lt;Compound Path&gt;" fill-rule="evenodd" class="s0" d="m102.7 8.4q0-0.5 0.2-1 0.2-0.5 0.6-0.8 0.3-0.4 0.8-0.6 0.5-0.2 1-0.2 0.6 0 1 0.2 0.4 0.3 0.7 0.6 0.2 0.3 0.3 0.7 0.2 0.4 0.1 0.8 0 0.1-0.1 0.2 0 0-0.1 0l-3-0.1q0 0.4 0.2 0.8 0.1 0.3 0.3 0.6 0.2 0.3 0.5 0.5 0.3 0.2 0.8 0.3 0.3 0 0.6-0.2 0.3-0.1 0.5-0.4l0.2 0.2q-0.1 0.1-0.3 0.3-0.1 0.2-0.4 0.4-0.3 0.2-0.7 0.3-0.3 0.1-0.7 0.1-0.6 0-1.1-0.2-0.4-0.2-0.8-0.6-0.3-0.3-0.5-0.8-0.1-0.5-0.1-1.1zm3.3-0.4q0-0.3 0-0.7-0.1-0.4-0.2-0.6-0.2-0.3-0.4-0.5-0.1-0.2-0.4-0.1-0.4 0-0.6 0.6-0.3 0.5-0.2 1.3z"/>
				<path id="&lt;Compound Path&gt;" fill-rule="evenodd" class="s0" d="m108 8.6q0.1-0.6 0.3-1.1 0.2-0.4 0.5-0.8 0.4-0.3 0.9-0.5 0.4-0.2 1-0.2 0.5 0 1 0.2 0.4 0.3 0.6 0.6 0.3 0.3 0.4 0.7 0.1 0.4 0.1 0.9-0.1 0.1-0.1 0.1-0.1 0-0.2 0l-2.9-0.1q0 0.4 0.1 0.7 0.1 0.4 0.3 0.7 0.2 0.3 0.5 0.5 0.3 0.2 0.8 0.2 0.3 0.1 0.6-0.1 0.3-0.1 0.5-0.3l0.2 0.1q0 0.1-0.2 0.3-0.2 0.2-0.5 0.4-0.3 0.2-0.6 0.3-0.4 0.1-0.8 0.1-0.6 0-1-0.2-0.5-0.2-0.8-0.6-0.4-0.4-0.5-0.9-0.2-0.5-0.2-1zm3.4-0.4q0-0.3-0.1-0.7 0-0.4-0.2-0.6-0.1-0.3-0.3-0.5-0.2-0.2-0.4-0.1-0.4 0-0.7 0.5-0.2 0.6-0.2 1.3z"/>
			</g>
			<g id="&lt;Group&gt;">
				<path id="&lt;Compound Path&gt;" class="s0" d="m23.8 68.2l-3.6-1.1-1.1 3.5-0.9-0.3 2.2-7.3 0.9 0.2-0.9 3.1 3.6 1.1 1-3.1 0.8 0.3-2.2 7.4-0.8-0.3z"/>
				<path id="&lt;Compound Path&gt;" fill-rule="evenodd" class="s0" d="m32.2 72.2l-3.5-0.9-1.3 1.7-0.9-0.2 5.4-6.9 1.6 8.6-0.9-0.2zm-3-1.6l2.9 0.7-0.7-3.5z"/>
				<path id="&lt;Compound Path&gt;" class="s0" d="m42.5 74.5l1.1-5.7 0.9 0.2-1.6 7.8-4.5-7.1-1.1 5.7-0.9-0.2 1.6-7.8z"/>
				<path id="&lt;Compound Path&gt;" fill-rule="evenodd" class="s0" d="m49.7 69.9c2.4 0.4 3.9 2.2 3.5 4.4-0.3 2.3-2.3 3.6-4.7 3.2l-1.7-0.3 1.2-7.6zm-0.1 0.8l-0.8-0.1-1 6 0.8 0.1c1.9 0.3 3.4-0.6 3.7-2.5 0.3-1.8-0.9-3.2-2.7-3.5z"/>
				<path id="&lt;Compound Path&gt;" class="s0" d="m57.8 73.6l-1.5 5-0.9-0.1 2.4-7.7 1.9 6.5 3.4-5.9 0.6 8.1-1-0.1-0.3-5.2-2.9 5.1z"/>
				<path id="&lt;Compound Path&gt;" fill-rule="evenodd" class="s0" d="m71.7 78.2l-3.6-0.3-1.1 1.9-0.9-0.1 4.2-7.6 3 8.2-0.9-0.1zm-3.2-1l2.9 0.2-1.2-3.4z"/>
				<path id="&lt;Compound Path&gt;" fill-rule="evenodd" class="s0" d="m78.3 72.8c2.4 0.1 4.2 1.7 4.1 4-0.1 2.3-2 3.8-4.4 3.7l-1.7-0.1 0.3-7.7zm0 0.9l-0.8-0.1-0.2 6.1h0.7c1.9 0.1 3.4-1 3.4-2.9 0.1-1.8-1.3-3.1-3.1-3.1z"/>
				<path id="&lt;Compound Path&gt;" class="s0" d="m85.7 73h4v0.9l-3.1-0.1v2.5h3.1v0.8h-3.2v2.8h3.2v0.9l-4.1-0.1z"/>
				<path id="&lt;Compound Path&gt;" class="s0" d="m102.2 76.8l-3.8 0.1 0.1 3.7h-0.9l-0.3-7.7h0.9l0.1 3.2 3.8-0.1-0.1-3.3h0.9l0.3 7.7h-0.9z"/>
				<path id="&lt;Compound Path&gt;" fill-rule="evenodd" class="s0" d="m111.5 77.9l-3.7 0.2-0.7 2-0.9 0.1 3-8.2 4.2 7.7h-0.9zm-3.3-0.5l2.9-0.3-1.7-3.1z"/>
				<path id="&lt;Compound Path&gt;" fill-rule="evenodd" class="s0" d="m117.3 79.3l-0.9 0.1-0.8-7.7 1.7-0.2c1.5-0.1 2.6 0.5 2.8 1.9 0.1 1.4-0.9 2.3-2.3 2.5l-0.9 0.1zm-0.4-4.1l0.8-0.1c0.9-0.1 1.6-0.5 1.5-1.5-0.1-1.1-0.9-1.4-1.8-1.3l-0.8 0.1z"/>
				<path id="&lt;Compound Path&gt;" fill-rule="evenodd" class="s0" d="m124.8 78.4l-0.9 0.1-1-7.6 1.7-0.3c1.4-0.2 2.6 0.5 2.8 1.9 0.2 1.4-0.8 2.3-2.2 2.5l-0.8 0.1zm-0.6-4l0.8-0.1c0.9-0.2 1.6-0.6 1.5-1.7-0.2-1-1-1.3-1.9-1.1l-0.8 0.1z"/>
				<path id="&lt;Compound Path&gt;" class="s0" d="m132.3 77.3l-0.9 0.1-1.2-7.6 0.9-0.1z"/>
				<path id="&lt;Compound Path&gt;" class="s0" d="m141.5 73.8l-1-5.7 0.8-0.2 1.5 7.8-6.8-4.9 1 5.7-0.9 0.2-1.4-7.9z"/>
				<path id="&lt;Compound Path&gt;" class="s0" d="m144.9 67.2l4-0.9 0.2 0.8-3.1 0.7 0.5 2.3 3.1-0.6 0.2 0.8-3.1 0.6 0.6 2.8 3.1-0.7 0.1 0.8-4 0.9z"/>
				<path id="&lt;Compound Path&gt;" class="s0" d="m155.8 72.7c-1.4 0.4-2.5-0.2-3.1-1.4l0.8-0.4c0.5 0.9 1.2 1.3 2.1 1.1 0.8-0.2 1.4-1 1.2-1.9-0.5-1.8-3.8-0.2-4.4-2.6-0.2-1.2 0.4-2.2 1.7-2.5 1-0.3 1.8 0.2 2.3 0.8l-0.7 0.6c-0.4-0.5-0.8-0.8-1.5-0.6-0.7 0.1-1.1 0.7-0.9 1.4 0.4 1.7 3.7 0.2 4.3 2.7 0.3 1.2-0.5 2.5-1.8 2.8z"/>
				<path id="&lt;Compound Path&gt;" class="s0" d="m163.3 70.8c-1.4 0.4-2.6-0.2-3.1-1.4l0.8-0.4c0.4 0.9 1.2 1.3 2.1 1.1 0.8-0.2 1.3-1 1.1-1.9-0.5-1.8-3.8-0.1-4.4-2.5-0.3-1.2 0.3-2.2 1.5-2.6 1.1-0.2 1.9 0.2 2.4 0.8l-0.7 0.6c-0.3-0.5-0.8-0.7-1.5-0.6-0.7 0.2-1.1 0.8-0.9 1.5 0.5 1.7 3.8 0.1 4.5 2.5 0.3 1.3-0.5 2.6-1.8 2.9z"/>
			</g>
			<g id="&lt;Group&gt;">
				<g id="&lt;Group&gt;">
					<path id="&lt;Path&gt;" class="s0" d="m69.7 36.3q0.7-0.7 1.5-1.5 0.8-0.7 1.8-1.6 1.2-1.1 2.1-1.7 0.9-0.6 1.9-1 1-0.4 1.7-0.5 0.6-0.2 0.9-0.4 0.2-0.2 0.2-0.4 0.1-0.2 0-0.3-0.1-0.2-1.3 0-1.2 0.2-3.4 0.2-2.2 0-3.4-0.2-1.2-0.2-1.4 0-0.1 0.1 0 0.3 0 0.3 0.2 0.4 0.5 0.3 1.1 0.4 0.6 0 0.9 0.5 0.4 0.4 0.2 0.9-0.2 0.5-0.9 1.2-1.4 1.5-2.9 3c-1.1 1-2.6 2.4-3.8 3.3l-0.1 0.1v-4.3-14.3q0-1.1-1-1c-1.3 0.4-2.7 0.9-4.6 1.1-1.2 0-2.3 0-3.2-0.1q-0.4 0.1-0.4 0.5 0 0.4 0.4 0.7 0.6 0.3 1 1 0.3 0.7 0.5 1.5 0.2 0.9 0.2 1.8c0.1 0.6 0.1 1.9 0.1 2.5v13.9q0 0.9-0.1 1.8 0 0.9-0.2 1.7-0.1 0.9-0.5 1.6-0.3 0.7-1 1.1-0.4 0.2-0.4 0.7 0 0.5 0.4 0.5h0.2c1.1-0.2 2.9-0.3 5.1-0.3 2.2 0 4 0.1 5.1 0.3h0.2q0.4 0 0.4-0.5 0-0.5-0.4-0.7-0.8-0.5-1.1-1.6-0.4-1.1-0.5-2.3-0.2-1.3-0.2-2.5 0-1.2 0-1.9v-0.3"/>
					<path id="&lt;Path&gt;" class="s0" d="m100.2 53.4c0 0-19.1 15.3-35.3-13.6l5-3.8c0 0 12.5 27.8 29.6 16.2"/>
				</g>
				<path id="&lt;Path&gt;" class="s0" d="m100.4 52.5c0.2 0.3 0.1 0.7-0.2 0.9-0.3 0.2-0.8 0.1-0.9-0.2-0.2-0.4-0.1-0.8 0.2-1 0.3-0.2 0.7 0 0.9 0.3z"/>
			</g>
			<g id="&lt;Group&gt;">
				<path id="&lt;Compound Path&gt;" fill-rule="evenodd" class="s0" d="m183 27.5q0-0.5 0.1-0.9 0.2-0.4 0.5-0.7 0.3-0.3 0.8-0.5 0.4-0.2 0.8-0.2 0.5 0 0.9 0.2 0.4 0.2 0.7 0.5 0.4 0.3 0.5 0.7 0.2 0.4 0.2 0.9 0 0.5-0.2 0.9-0.1 0.4-0.5 0.7-0.3 0.3-0.7 0.5-0.4 0.2-0.9 0.2-0.4 0-0.8-0.2-0.5-0.2-0.8-0.5-0.3-0.3-0.5-0.7-0.1-0.4-0.1-0.9zm0.3 0q0 0.4 0.1 0.8 0.2 0.3 0.5 0.6 0.2 0.3 0.6 0.4 0.3 0.2 0.7 0.2 0.4 0 0.8-0.2 0.4-0.1 0.6-0.4 0.3-0.3 0.5-0.6 0.1-0.4 0.1-0.8 0-0.4-0.1-0.8-0.2-0.3-0.5-0.6-0.2-0.3-0.6-0.4-0.4-0.2-0.8-0.2-0.4 0-0.7 0.2-0.4 0.1-0.6 0.4-0.3 0.3-0.5 0.6-0.1 0.4-0.1 0.8zm1.6 1q0 0.1 0.1 0.1 0 0 0 0 0.1 0.1 0.1 0.1 0.1 0 0.1 0.1 0 0-0.1 0-0.1 0-0.2 0-0.1 0-0.3 0-0.1 0-0.2 0-0.2 0-0.3 0-0.1 0-0.1 0 0-0.1 0.1-0.1 0.1 0 0.1-0.1 0.1 0 0.1-0.1v-1.9q0-0.2-0.1-0.2 0 0 0 0-0.1-0.1-0.1-0.1-0.1 0 0-0.1 0 0 0 0 0.1 0 0.2 0 0.1 0 0.3 0 0.2 0 0.4 0 0.2 0 0.4 0 0.2 0 0.3 0.1 0.2 0.1 0.3 0.1 0.1 0.1 0.2 0.3 0 0.1 0 0.2 0 0.3-0.2 0.4-0.1 0.2-0.4 0.3 0.2 0 0.3 0.2 0.1 0.1 0.2 0.3 0 0 0.1 0.1 0 0.1 0.1 0.2 0 0.1 0.1 0.1 0 0.1 0.1 0.1 0 0.1 0 0.1 0.1 0 0.1 0 0 0 0 0.1 0 0 0 0-0.1 0-0.2 0-0.1 0-0.2 0-0.1 0-0.2 0-0.2 0-0.2 0 0 0 0 0-0.1-0.1-0.1-0.1 0-0.1-0.1-0.2 0-0.1-0.1-0.2 0-0.1-0.1-0.3-0.1-0.1-0.1-0.2-0.1-0.1-0.2-0.1 0-0.1-0.1-0.1h-0.1zm0.3-1q0.2 0 0.2-0.1 0.1-0.1 0.1-0.2 0.1-0.1 0.1-0.3-0.1-0.1-0.1-0.2-0.1-0.1-0.2-0.2-0.1-0.1-0.2-0.1 0 0-0.1 0.1-0.1 0-0.1 0.1v0.9z"/>
			</g>
			<path id="&lt;Compound Path&gt;" fill-rule="evenodd" class="s0" d="m151.9 29q2.2 0.3 4 1.4 1.8 1.2 3 2.8 1.2 1.7 1.8 3.8 0.5 2 0.2 4.2-0.3 2.2-1.5 4-1.1 1.8-2.8 3-1.7 1.3-3.7 1.8-2.1 0.6-4.3 0.2-2.1-0.3-3.9-1.5-1.9-1.1-3.1-2.8-1.2-1.7-1.7-3.7-0.6-2.1-0.2-4.3 0.3-2.2 1.5-4 1.1-1.8 2.8-3 1.6-1.2 3.7-1.8 2.1-0.5 4.2-0.1zm-5.4 11.7q0.4 1.5 1 3 0.7 1.4 1.4 2.5 0.6 1.1 1.4 1.8 0.8 0.7 1.7 0.8 0.6 0.1 1.1-0.1 0.9-0.3 1.4-1.2 0.5-1 0.6-2.4 0.1-1.5-0.2-3.2-0.3-1.7-0.8-3.5-0.5-1.5-1.1-2.9-0.6-1.4-1.3-2.5-0.7-1.1-1.5-1.8-0.8-0.7-1.6-0.9-0.6-0.1-1.1 0.1-0.9 0.3-1.4 1.3-0.5 0.9-0.6 2.4-0.1 1.4 0.2 3.1 0.3 1.7 0.8 3.5z"/>
			<path id="&lt;Compound Path&gt;" fill-rule="evenodd" class="s0" d="m137.8 41q0 2.6-1.2 4.3-1.2 1.7-3.1 2.7-1.9 0.9-4.4 1.3-2.5 0.4-5.1 0.4h-13.2q-0.5 0-0.5-0.5 0-0.6 0.5-0.8 0.6-0.4 1-1.6 0.3-1.3 0.5-3.1 0.2-1.9 0.2-4.2 0-2.3 0-4.9 0-2.5 0-4.9 0-2.3-0.1-4.2-0.2-1.8-0.5-3.1-0.4-1.3-1.1-1.7-0.5-0.3-0.5-0.8 0-0.5 0.5-0.5h13.2q2 0 4 0.3 2.1 0.2 3.8 1 1.7 0.8 2.7 2.2 1.1 1.4 1.1 3.7 0 1.4-0.5 2.6-0.5 1.1-1.4 1.9-0.8 0.8-1.9 1.4-1.2 0.6-2.3 0.9 1.5 0.3 3 0.9 1.5 0.6 2.7 1.5 1.1 0.9 1.9 2.2 0.7 1.2 0.7 3zm-23.7-19c3.1-0.4 5.9-0.4 7.6-0.3q0 0 0 0.1 0 0.5-0.4 0.7-0.4 0.1-0.6 0.6-0.3 0.6-0.4 1.3-0.4 1.7-0.4 3.9-0.1 2.2-0.1 4.5 2.5-0.1 4.1-0.4 1.6-0.3 2.5-1.1 1-0.7 1.5-1.8 0.4-1.1 0.4-2.7 0-1.2-0.3-2.3-0.2-1.1-0.7-1.9-0.5-0.9-1.3-1.4-0.6-0.4-1.4-0.5-0.5-0.1-1-0.1-1.7-0.1-3.4 0.1c-0.6 0-1.5 0.2-2.1 0.3-0.9 0.2-2.2 0.4-4 1zm16.3 19.4q0-2.2-0.6-3.6-0.6-1.4-1.9-2.2-1.2-0.8-3.2-1.1-2.1-0.4-4.9-0.4v0.4q0 2.6 0.1 5.1 0 2.5 0.3 4.4 0.4 2 1.2 3.2 0.9 1.2 2.6 1.2 1.5 0 2.8-0.7 1.2-0.7 2-1.7 0.8-1 1.2-2.2 0.4-1.3 0.4-2.4z"/>
			<path id="&lt;Path&gt;" class="s0" d="m181 48.5q-0.7-0.4-1.3-1-0.5-0.6-0.9-1.2-0.5-0.7-0.9-1.4-0.4-0.8-0.8-1.6-0.7-1.2-1.5-2.5-0.8-1.4-1.5-2.7 0.7-1.3 1.5-2.6 0.8-1.2 1.6-2.3 0.8-1.1 1.6-1.9 0.8-0.9 1.7-1.2 0.6-0.3 0.6-0.8 0-0.3-0.1-0.4c-0.8 0.1-1.7 0.2-2.6 0.2-1.3 0-2.5-0.1-3.3-0.3q-0.4 0-0.5 0.5 0 0.4 0.4 0.8 0.4 0.2 0.3 0.8 0 0.7-0.3 1.5-0.3 0.9-0.8 1.9-0.5 1.1-1.1 2.1-0.3-0.5-0.6-0.9-0.2-0.5-0.5-0.9-0.5-0.9-0.9-1.6-0.4-0.8-0.6-1.3-0.2-0.6-0.2-1 0-0.4 0.4-0.6 0.5-0.3 0.3-0.8-0.1-0.5-0.5-0.5c-1.1 0.2-3 0.3-5.1 0.3-1.7 0-3.2-0.1-4.3-0.2 0 0 0 0-0.1 0.1q-0.1 0.1-0.1 0.3 0 0.3 0.1 0.5 0.1 0.2 0.4 0.3 0.6 0.1 1.1 0.6 0.4 0.4 0.8 1 0.5 0.7 0.8 1.4 0.4 0.7 0.8 1.5 0.3 0.5 0.6 1 0.3 0.5 0.6 1 0.3 0.5 0.6 1.2 0.4 0.6 0.9 1.5-0.8 1.4-1.7 2.9-0.8 1.5-1.7 2.7-0.9 1.3-1.8 2.2-0.9 1-1.9 1.4-0.6 0.3-0.6 0.8c0 0.2 0.1 0.3 0.2 0.4 0.8-0.2 2-0.2 3.3-0.2 1.1 0 2.1 0 2.9 0.1q0.1-0.1 0.1-0.3 0.1-0.4-0.4-0.8-0.3-0.3-0.2-1.1 0.1-0.7 0.5-1.7 0.4-1.1 1-2.3 0.6-1.2 1.3-2.4 0.3 0.5 0.6 1.1 0.3 0.5 0.7 1.2 0.5 0.8 0.9 1.6 0.4 0.7 0.6 1.4 0.2 0.7 0.2 1.3 0 0.6-0.4 0.9-0.3 0.3-0.3 0.8 0 0.5 0.4 0.5h0.2c1.1-0.2 2.9-0.4 5.1-0.4 1.9 0 3.5 0.2 4.7 0.3 0.2-0.1 0.3-0.2 0.3-0.4q-0.1-0.4-0.6-0.8z"/>
			<path id="&lt;Path&gt;" class="s0" d="m28.1 42.6c-0.7-0.4-1.1 0.3-1.4 0.8-1.1 1.5-2.1 2.4-3.1 3q-0.4 0.3-0.8 0.5 0 0 0 0-0.6 0.3-1.2 0.5c-4.8 1.2-10.2-3.7-12-10.9-1.7-7.2 0.7-14 5.5-15.2q0.8-0.2 1.6-0.1 0.1 0 0.3 0 0.6 0 1.2 0.2 0.3 0.1 0.6 0.2 0.1 0 0.1 0 1 0.5 1.7 1.3 0.8 0.8 1.4 1.8 0.7 1.1 1.3 2 0.4 0.5 0.9 0.8 0.6 0.2 1.2 0.2 0.7 0 1.3-0.4 0.7-0.4 1.1-1 0.4-0.7 0.3-1.5c0-0.6-0.2-1.2-0.7-1.8-0.7-1.1-1.8-1.9-3.3-2.5 0 0-0.1 0-0.2 0-5.9-2-13.4-1.4-17.8 3.2-5.7 5.7-5.8 16.5 0 22.3 4.7 5.1 14 6.1 19.3 1.2 1.2-1.1 2.2-2.4 2.7-3.8 0.2-0.3 0.1-0.6 0-0.8z"/>
			<path id="&lt;Compound Path&gt;" fill-rule="evenodd" class="s0" d="m100.9 43.8q0.1 0.3-0.1 0.9-0.4 0.8-1.2 1.8-0.9 1-2.1 1.9-1.2 0.8-2.7 1.4-1.5 0.5-3.3 0.5c-0.1 0-0.2 0-0.2 0-6.4 0-11.5-4.4-11.5-10.8 0-6.4 5.1-10.7 11.4-10.7 6.3 0 10.4 4 10.4 10.7h-14.5c0.1 1.6 0.7 3.2 1.6 4.4 0 0 2.2 3.3 5.8 3.1q1 0 1.7-0.3 1-0.4 1.6-0.9 0.7-0.4 1.2-0.9 0.4-0.5 0.6-0.9 0.4-0.5 0.8-0.5 0.3 0 0.5 0.3zm-13.9-5.4h8.1c-0.1-6.9-1.3-8.8-3.9-8.8-2.8 0-4.1 2.6-4.2 8.8z"/>
			<path id="&lt;Compound Path&gt;" fill-rule="evenodd" class="s0" d="m54.8 47.4c-0.3 0.4-1.2 1.4-1.3 1.5-1.2 1.1-2.7 1.5-4.3 1.5-0.7-0.1-1.5-0.2-2.3-0.7q-0.1 0-0.2 0-0.3-0.2-0.6-0.5-0.1 0-0.1 0c-0.5-0.4-0.9-0.8-1.2-1.2q-0.4-0.7-0.7-1.4-0.7 1.6-2.2 2.5-1.4 1-3.8 1-2.1 0-3.7-0.4-1.6-0.4-2.7-1.1-1.1-0.7-1.7-1.6-0.6-1-0.6-2.1 0-1 0.5-1.7 0.4-0.7 1.2-1.3 0.8-0.5 1.7-1 1-0.4 2-0.8 1.1-0.3 2-0.7 0.9-0.3 1.7-0.5 1-0.4 1.9-0.7 0.9-0.3 1.7-0.7 0.7-0.4 1.2-0.9 0.5-0.6 0.5-1.5 0-2.2-0.7-3.6-0.6-1.4-2.3-1.4-0.8 0-1.3 0.4-0.6 0.5-1 1.1-0.4 0.7-0.7 1.4-0.3 0.8-0.5 1.4-0.5 1.2-1.3 1.7-0.8 0.5-1.7 0.5-1.2 0-2.2-0.8-0.9-0.8-1-2.1-0.1-1.6 1-2.6 1.1-0.9 2.6-1.5 1.6-0.5 3.3-0.6 1.6-0.2 2.7-0.2 1.8 0 3.6 0.5 1.8 0.4 3.2 1.6 1.4 1.1 2.3 3.1 0.9 2 0.9 5 0 1.3 0 2.9c0 1 0 1.9 0.1 2.9 0.1 0.8 0.3 1.5 0.5 2.2q0.1 0.3 0.2 0.4 0.2 0.4 0.6 0.6c0.5 0.1 1-0.2 1.5-0.7 0.1-0.2 0.3-0.3 0.4-0.4q0.3-0.4 0.6-0.3 0.2 0 0.3 0.2 0.1 0.2-0.1 0.6zm-11-9.9q-0.7 0.7-1.8 1.2-1.1 0.5-2.3 1-1.4 0.7-2.4 1.8-1 1.2-1 3.5 0 0.4 0.2 1 0.1 0.6 0.5 1.3 0.4 0.6 1 1 0.6 0.4 1.5 0.4 1.4 0 2.2-0.7 0.9-0.7 1.3-1.8 0.5-1.1 0.6-2.3 0.2-1.3 0.2-2.3 0-1.1 0-2.2 0-1 0-1.9z"/>
		</g>
	</g>
</svg>